<svg xmlns="http://www.w3.org/2000/svg" viewBox="0 0 3671 510">
  <g fill="none" fill-rule="evenodd">
    <path d="M1 1h359v509H1zm359 0h359v509H360zm359 0h359v509H719zm359 0h370v509h-370zm371 0h370v509h-370zm370 0h370v509h-370zm371 0h370v509h-370zm370 0h370v509h-370zm371 0h370v509h-370zm370 0h370v509h-370z" class="cell-container"/>
    <path fill="#000" d="M51 288c13-5 35-9 66-12 0 0 18-10 55-15 1 0 8-8 36-13 16 0 21-4 30 5 4-13 19-16 29-15 7 1 11 6 12 8 4 12 21 5 30 12-23 6-23 7-32 11-16 14-31 31-47 31-16 4-33 6-50 4-1 4-4 7-8 8-6 2-1-9-4-12s-3 10-17 18c-1-14-5-10-5-18s4 13-17 18c-14 4-32 4-53 2 26-8 41-16 46-23-5 0-18-1-21-9-14-4-31-4-50 0zm588-15c0 2-10 3-16 5-9 1-8 8-14 7s-5 8-19 14c2 11 21 9 36 19 29 31 18 19 37 63 14 28 18 30 27 57-1 1-11-1-14-7-1 5-5 1-4 7-5-1-8-8-12-11-4-1 1 7-2 8-4 0-5-8-9-8-4 1 1 6-2 7-33-30-43-21-43-36-8 10-10-2-19 3-4-5-6-10-2-17-1-5-7 5-11 3-1-6 1-13 7-20-7 7-14 10-22 10 1-10-1-6 5-16-6 8-13 8-19 6-4-2 4-8 2-11-8 0-23-1-24-4-3-8 8-19 4-25-3-5-12 9-15-3 0-12-5-17-14-15h-32c-19 2-27-5-58-5 10-5 9-13 27-13-21-3-10-10-45-13 30-8 32 0 54 7 68-7 22-15 94-22 14-2 36-4 58 2 5-2 6-5 15-6 8 0 13 4 14 11 11 1 16 2 16 3zm90 26c32-14 56-26 90-40 20-6 37-5 56-8 28 0 17-8 55-3 8-1 11-7 19-7 9 0 13 3 14 8l26 5-24 5c-3 5-8 8-16 9-12 12-11 18-29 21 22 13 23 17 64 38 13 11 13 15 17 31s14 26 21 35c26 46 23 59 45 80-11-1-23-8-28-13-4-1-3 5-3 8-6-2-8-15-16-13-3 0 4 5 0 13-13-5-14-7-16-13-3-4-7-11-3-12-2 8 0 12-6 12-5-10-7-3-11-12-8-14-17-12-17-29-4 0-7 4-10 9-3-4 0-9-1-12l-7 3c-2-13-2-22 0-27-8 2-4 6-15 10-5-6-4-12-2-21-5 6-5-3-12 2-9-9-10-18-25-18-5-12-3-20-11-22-3 1-4 10-6 7s-2-10-5-12c-2-3-6 6-9 3 0-5-2-11-6-14-3-4-5 0-10 3-2-5-2-9-1-14-4-1-14 5-12-2 0-7-4-4-8-4-5 0 1-5-1-6-5-2-13 2-21 6-5-2 4-10 0-10-31-1-38 7-76 4zm638-45-18-3c-2-6-5-9-10-10-14-1-17 7-22 10-21-3-19-1-35 0-30-5-36 4-50 7-36 5-33 9-48 16-34 18-41 19-75 29 7 1 14 0 22-2-15 4-21 6-19 7 31-5 29 4 52 0 11-3 10-9 13-12l2 13c16-3 21-2 30-2 3 4-4 9 0 10l16-4c-4 5-6 8-5 11 15 2 12 4 24 1-11 4-11 4-16 10 16 3 14 1 24 2-4 4-3 8-1 11 6-3 10-4 12-3-3 4-5 7-2 9 10-2 12-5 15-2-3 8 0 11 1 22 5 0 10-2 15-4 1 8-3 8-3 16 6 3 13-3 17-1-7 4-7 6-8 9 7 3 6 2 14 0-5 4-7 8-5 11 5-3 8-3 9 0-2 6 0 7 1 15 10-5 10 2 21 5 6 3 6 11 11 14 9 7 20 9 19 9s-9-11-5-10l13 13-2-17c9 14 12 12 28 23 3-13-6-18-15-28 19 22 19 20 30 24-24-30-20-26-29-53-14-26-24-61-39-75-18-12-19-17-38-26-3-5-7-8-12-10 12-2 21-6 28-11 2-5 7-5 11-9 6-1 10-4 11-9l18-6zm384 2c-11-1-12-4-24-6-3-6-4-5-10-7-14 0-21 7-29 12-24-3-31-1-44 2-46 12-43 12-70 23-46 27-39 30-58 40 23 6 31-3 47-7-7 3-9 6-6 10 7-3 11-4 13-3-5 2-10 11-5 10 27-2 31-14 46-15-4 5-6 8-4 13l18-4c-2 6-3 6 0 15 9 2 13-5 13-5 4 4 0 11 0 20 11 0 11 2 15 0-2 8 2 8 5 14 4-8 7-5 14-12-2 13 5 12 6 21 10-9 11-11 13-21-4 15 2 17 5 28 4-7 7-7 8-16 1 5 4 8 5 6 3-10 3-8 4-6-3 13 2 16 5 27 7-12 5-18 5-19 2 15 15 8 28 33 4-14-16-38-23-73-4-23-3-28-14-43-3-7-10-8-13-7 8-4 7-8 12-15 15-2 11-5 15-10-1 0 5-4 23-5zm369 14c0-3-11-6-20-6l-7-7c-6-2-13-2-21 0-8 1-16-13-8-26 7-3 10-9 11-14-8-4-11-5-22-4-65 4-85 28-110 50-8 7 10 5 18 5-42 0-78 41-72 37s16 6 35-11c2-1-7 5-15 15 21-3 21-6 39-4-2 7 3 8 9 8h15c12 2 13-1 18-1h9c9-2 7-3 10-7-3 8 1 11 6 21 7-6 6-14 6-19 0 13-1 9 2 17 6-5 6-4 8-12-3 10-1 17 3 28 5 0 6-4 10-3 0 5 0 3 6 13 5-5 2 3 7-8-1 10 4 4 10 18 5-10 3-14-1-23 6 13 8 12 13 19 2-19-1-23-7-36 3-19-6-20-5-33 8-11 15 2 24-7 7-1 4-4 9-7 8-5 19 1 20-3zm365 9c-6-3-7-1-16-3 1-5-5-10-11-10-9 0-9 5-21 8-9 2-13 3-18-2-24-15-11-19-32-44-9-7-12-11-4-21 13-14 17-22 17-32-4-7-85-3-113 34 5 1 17-7 21-6s-19 13-10 11 15-7 21-7c3 0-2 2-3 7 4 1 10-2 16-3h10c-4 3-10 1-20 17 6 5 14-2 20-2-3 6-11 3-15 21 2 4 11-6 9-2 0 4-7 2-9 18 6 0 8-7 9-2-2 3-5 3-5 9 3 3 9-4 11-4-1 2-6 2-6 10-38 9-49 18-68 30 7 5 23-5 25-1-1 3-11 6-28 11 17 2 31 2 43-5 10 1 18-2 21-2 4 6 0 13 7 15l9-15c3-2-5 11 3 13 9 0 19 7 36 7 18 0 22-6 42-13 12-1 20-5 25-18 3-8 9-4 18-13 2-2 12-3 16-6zm374-3c-1-3-8-3-20-5-7-3-8-9-14-9-13 0-8 6-21 9-8 1-15 2-20 0l-10-6c-19-12-10 0-19-20-11-12-11-25-7-42l4-11c6-10 13-31 11-45-1-12-11-14-27-17-21-4-33-5-58-2-9 8-21 5-33 21 9-1 7-3 14 3 8-4 15-2 16-1 7 4-4 3 1 6 6 0 2 4 0 9 5-1 8-1 6 4 4 3 8-3 9 1 1 6-12 9-9 17 18 3 20 5 22 7-4 1 3 2-26 11 3 10 14 6 15 16 0 7-9 4-12 17 12 2 9 6 23 6-5 0-18 4-26 12 9 2 6 6 14 7 7 3 6 3 4 7-6 12-5 15-20 23s-26 16-35 22c-5 3-7 8-11 12 12-2 12-3 15-2 2 4 1-3 0 11l22-16c5 0 13-3 17 0 5 0 0-7 0-9s3 6 5 4c5-6 4-9 3-14 4 3 1 11 6 12 19 6 21 5 42-1l4-1c2 1 1 3 4 4 2-3 5-3 7-3v-1c10 3 17 4 32 1 13-8 24-5 35-17 14-6 14-10 17-16 4-3 9 0 20-4zm384 10c-8-3-7-2-17-4-8-3-5-11-21-13-16 1-15 14-31 13-10-1-13-7-21-11s-13-5-19-12c-13-42-1-10-3-59 0-8-6-44-1-54 8-3 5-14 0-22-32-34-40-58-60-79-4-1 5 12-2 7-9-5-7-14-23-22 1 5 4 12 2 15-5-3-14-23-20-23 1 4 8 11 8 23 0 4-14-6-9-1s7 13 9 19c7 13 22 23 22 22-3-1-17-12-26-11 2 5 8 7 10 17-2 2 0 3-8 0 4 19 14 28 35 41 3 4-11-4-14-1s2 9 5 15c9 18 18 19 20 30-1 4-10-1-14 2-2 2 5 6 4 10s-9 2-8 6c2 3-2 12-1 17s4 6 4 11 7-2 8 6c5 4-1 4-8 12 5 5 10 4 8 14s-7 6-12 12c-5 7-3 11-10 17-9 8-15 4-31 16-13 7-14 2-30 13 18 2 36 12 68 5 5 2-5 5-2 7 14 1 16 3 23 0-4 3-11 9-7 9h30c8 1 13 5 27 5 8 0 16-8 21-7 7 2 6 3 17 0 19-5 24-9 39-19 8-12 13-9 20-21 11-2 18-2 18-5zm352-12c0-3-5-4-13-7-4-3 0-8-10-10-17 0-11 9-21 12-10-1-9-2-21 1-4 1-4-11-6-13l-10-8c-3-11 6-24 3-45-1-9-4-22-9-33-2-13-2-10-13-23-21-28-37-37-47-67-5-5 0 12-5 11-7-3-15-19-19-19-3 0 8 18 4 23-3 4-17-8-17-5s8 16 15 19c-4 4-9-5-11-1 7 9 1 11 6 24 6 12 11 8 16 18-3 4-24-7-26-3-1 3 10 3 17 10 6 6 2 13 6 16 5 3 2 6 8 13s10-2 8 8c-1 5-4 4-4 9s8-1 6 5c0 3-4 4-6 8 0 1 8-1 8 1 1 7-7 12-4 17s12 4 17 3c-5 4-13 4-13 9 0 9 10 13 4 18 2 5-5 9-4 13s5 8 10 10c3 1 9 2 6 3-6 2-7-1-12 3-4 0-2-6-10-4-24 4-60 20-73 34-2 3 12-3 21-4-8 3-20 7-5 6 11 1 28 0 57-5 22-1 17 7 39 2 11 3 28 6 43-5 14-2 16-10 33-23 6-2 11-11 14-17 8-4 12-1 18-4z"/>
  </g>
</svg>
