<svg xmlns="http://www.w3.org/2000/svg" version="1.1" xmlns:xlink="http://www.w3.org/1999/xlink" width="1189" height="1189"><svg xmlns="http://www.w3.org/2000/svg" width="1189" height="1189" version="1.1">
<circle cx="594.5" cy="594.5" r="594" fill="#f9d95e"></circle>
  <path fill="#79a23d" fill-rule="evenodd" d="M560.5 108.2a576.9 576.9 0 0 0-75 10.3 622 622 0 0 0-82 26.6 532.3 532.3 0 0 0-76 40.9c-1 0-23.8 16.6-37.5 27.3a435.5 435.5 0 0 0-40.5 37.1 445.1 445.1 0 0 0-78.3 102.3A481 481 0 0 0 109 566a532.9 532.9 0 0 0 1.5 66.5c.3 5 1 11.5 1.5 14.5s1.2 8.2 1.5 11.5c1.3 13.2 7.7 44.3 12.6 61.4 3.5 12.3 14 42.7 17.9 52.1a513.4 513.4 0 0 0 56.5 101 634 634 0 0 0 33.5 41.5 698 698 0 0 0 47 45.5c7.9 7.4 31.3 25 47 35.2 18.3 12 26.1 16.4 49.5 27.8a466 466 0 0 0 152.8 46 524 524 0 0 0 46.3 3.5c12.9.6 52.2-1 68.9-3 55.2-6.3 102.5-20 152.8-43.8A448.5 448.5 0 0 0 903 957a610 610 0 0 0 75.6-83 565 565 0 0 0 26.8-41.1 492.2 492.2 0 0 0 63-196c2-13.2 2.7-52.6 1.4-77-.7-13.3-4-41.7-5.8-51.5-4.5-23-7.8-37.6-11.9-51.5a550 550 0 0 0-18-51.7l-4.7-10.3a487.6 487.6 0 0 0-62.8-103.5 514 514 0 0 0-79.1-80c-17.6-13.7-49-35.5-51-35.5a440.6 440.6 0 0 0-73.8-36.4 432.9 432.9 0 0 0-96.2-26 511 511 0 0 0-106-5.4m14.5 7.4c-51 2.6-89 9.6-135.3 24.8a489.8 489.8 0 0 0-94 43.9 479.7 479.7 0 0 0-135.6 124 591 591 0 0 0-36.3 56.6l-6.9 13.1a519 519 0 0 0-34.2 89c-1.8 6.3-6.8 29.6-9.1 42-1.8 9.6-4.4 31.8-5.2 43a83 83 0 0 1-1 9.9c-1 5-.4 51.5 1 68.1a377 377 0 0 0 6.6 49.5A487.4 487.4 0 0 0 182.8 831c12.3 22 43.9 64.1 63.3 84.5A600.1 600.1 0 0 0 305 969c1 1.2 19 14 27.4 19.4a519 519 0 0 0 85.9 44A898 898 0 0 0 469 1049c29.5 8 66.4 13.5 100 14.9a473 473 0 0 0 258-62.4c8-4.5 35.3-22.4 43.1-28.3a620.7 620.7 0 0 0 44.4-37.9 513 513 0 0 0 56.7-65.8 95 95 0 0 1 5.5-7.4c5-5 23.4-35.3 33-54.1a486 486 0 0 0 39.2-104.5 469.6 469.6 0 0 0 12.5-145c-.3-7.1-.7-14.4-1-16l-1.4-12a486 486 0 0 0-9.5-52 442.9 442.9 0 0 0-27-79.2 413 413 0 0 0-15.5-31.8c-10.8-19.7-10.8-19.7-20.3-34a434.8 434.8 0 0 0-49.8-64.1 59.4 59.4 0 0 1-7.9-9.1 538 538 0 0 0-38-35.5c-12-9.5-15-12-25-19.4a501.7 501.7 0 0 0-93.5-53A439 439 0 0 0 742 141a447.5 447.5 0 0 0-122-24.5c-14.5-.8-38.2-1.2-45-.9m19.6 24.7c-.8 2.5-6 78.7-5.4 79.2.7.8 57.8 4.7 59.4 4.1 1-.4 1.4-2.3 1.4-7v-6.4l-8.8-.6a417.4 417.4 0 0 1-34.4-3.2c-1-.6 0-16.2 1.2-18.3.8-1.6 8.4-1.6 27-.1 5.7.5 10.8.6 11.2.2.4-.4.8-3.6 1-7.2l.2-6.5-18.5-1.3c-10.1-.8-18.8-1.7-19.3-2.2-.5-.5-.5-4.3-.1-8.4.6-7 .9-7.6 2.8-7.6l20.7 1.4c10.2.8 18.8 1.2 19.1 1 .3-.2.7-3.5.8-7.4l.2-7h-2.8c-4 0-46-2.8-51-3.5-3-.3-4.5 0-4.7.8m-81.8 4.1a36.4 36.4 0 0 0-26.6 34.1 57 57 0 0 0 11 38.7 35.4 35.4 0 0 0 28.7 11.3c28.8-3.3 42.1-24.4 34.5-54.5-4.9-19.2-16.6-29.6-34.6-30.5a43 43 0 0 0-13 1m181.6 11.9a29.4 29.4 0 0 0-14.4 22.9c0 8.6 5.4 14.3 23 24.7 13 7.6 15 9.4 15 13.5 0 6.8-5.3 9.8-14.8 8.3-10.6-1.7-16-6.2-17.2-14.1-.5-4-.6-4.1-6.9-6a23 23 0 0 0-7.7-1.3c-1 .4-1.4 2.3-1.4 6.4 0 7.4 3.5 14.7 9.3 19.5A41 41 0 0 0 697 239c6 1.8 8.8 2 14 1.6 12-1.3 18.5-6 22-15.9 5-14.3 1-21.1-20-33.2-14-8.1-16.3-10.2-16.2-14.7.2-7.5 10.5-10.3 20.1-5.5 5.3 2.6 8 6 8.3 10.5.1 1.8.7 3.7 1.3 4.1 1.7 1.3 12.7 4 13.8 3.4 1.6-1 .2-14.5-1.8-17.8-3.2-5-8.7-9.7-15.5-12.9a31.4 31.4 0 0 0-16-3.3c-6.6-.2-10.4 0-12.6 1m-177.9 2.4a23 23 0 0 0-11.9 9.8c-4.5 8.8-2.7 27 3.6 36.2 3.6 5.4 10.2 9.3 15.4 9.3 16.7 0 25.7-14.4 21.3-34-3.6-16.4-14.2-24.3-28.4-21.3m-94.6 11.7c-11.5 3.2-21.6 11-24.8 19.3-3.5 8.8.6 22.2 8.5 27.7 3.7 2.5 5 2.8 11 2.7 3.8 0 10.3-.5 14.4-1.1 15.7-2.2 18-2.3 20.8-1a9 9 0 0 1 5.2 8c0 5.7-11.9 13.2-21.2 13.4-5.1 0-6-.2-9-3.2a15 15 0 0 0-4.5-3.2 62 62 0 0 0-12.7 5.1c-.5.4.4 2.8 2 5.3 3.8 6 12 10.6 19.1 10.6 12.3 0 23.8-4.3 32.7-12.1a24 24 0 0 0 5.7-30c-5.1-9.8-11.7-12-28.3-10-5.3.6-10.7 1.4-12 1.7a57 57 0 0 1-7.7.6c-4.8 0-5.8-.3-7.8-2.6-3-3.6-3-6.7.4-10.7a21 21 0 0 1 16.1-6.9c4.7 0 5.8.4 8.4 3 3.4 3.5 4.3 3.4 12.1 0 2.6-1.2 4.7-2.6 4.7-3.2 0-1.4-4.7-7.7-7.5-10-5.2-4.5-16.3-6-25.6-3.4m348.8 14.2c-1.6 3.1-2.5 6-2 6.5.4.4 4.8 2.9 9.8 5.4 5 2.6 9.3 5 9.8 5.4.7.7-4.8 12-20.6 42.2-4.2 8.1-7.7 15.3-7.7 16.1a38 38 0 0 0 14.3 7.7L783 251c9.7-19.5 20-39.2 20.9-40.2.3-.4 4.9 1.5 10.1 4.2 5.2 2.7 10 5 10.7 5 1.5 0 7.6-11.1 6.6-12a416 416 0 0 0-17.8-9.5l-27.2-14.1c-5.6-3-10.8-5.4-11.5-5.4-.8 0-2.6 2.5-4.1 5.6m-454.2 46.6a6370.6 6370.6 0 0 0-35 27.1c-2 1.5-1.2 2.7 27.3 39.2l14.4 18.8c2.8 3.7 5.3 6.7 5.7 6.7.5 0 10.5-7.7 37-28.4a56 56 0 0 0 10-9c0-1.3-6.7-10.1-7.7-10.1-.7 0-14 10-27 20.2a36.8 36.8 0 0 1-7.9 5.3c-.7 0-3.8-3.4-7-7.6l-5.7-7.7 3.4-3 15.2-12c12.9-10 12.6-9.2 6.6-16.1l-3.4-4-10.2 8a677 677 0 0 1-15.4 11.6c-4.9 3.5-5.3 3.6-6.8 2-3.3-3.7-8-10-8-10.8a38 38 0 0 1 7.1-6.4c7.9-6.1 24.2-19 24.8-19.6.5-.5-4.5-7.8-6.7-9.7-1.5-1.4-2.6-.8-10.7 5.5m523.2 16.6C814 280 807.8 288 808.2 289c.5 1.4 45.7 37 47 37a46 46 0 0 0 7.8-10.1c0-.9-5.7-5.7-22.3-18.8a62 62 0 0 1-10.7-9.6c0-.6 2.5-4.4 5.6-8.3l5.6-7.2 3 1.7c1.7 1 4.9 3.4 7.2 5.3 2.2 2 7 5.7 10.6 8.5 3.6 2.7 7.1 5.5 7.8 6.2.7.7 1.8 1.3 2.2 1.3 1.5 0 9.2-10.2 8.3-11a446.8 446.8 0 0 0-11.3-9c-.3-.4-4.2-3.4-8.7-6.8a95.5 95.5 0 0 1-8.8-7.1c-.6-1 2.6-6.1 6.8-10.5 3.2-3.4 1.4-4.4 21.6 11.3a89 89 0 0 0 15 10.4c.5-.4 2.4-2.9 4.5-5.5l3.7-4.6-6.3-4.9c-7.4-5.6-20.9-16.2-32-25L857 226l-17.3 21.7m-253.7-4a345.7 345.7 0 0 0-180.5 54.5 362.7 362.7 0 0 0-70.8 59.6 390.3 390.3 0 0 0-48.2 67.1 370.1 370.1 0 0 0-29.5 72 377.4 377.4 0 0 0-13.5 90.8c-1 9.8 2.4 51.4 5.5 67.7 4 20.4 16.2 63 19 66 .6.5 1 1.5 1 2.2a39 39 0 0 0 3 7.5l5.5 12.8a62.4 62.4 0 0 0 6.5 12.5 373 373 0 0 0 34.4 53 367 367 0 0 0 101.1 87.5 466 466 0 0 0 44 21.5c10 3.8 28.5 10.5 32 11.6a532 532 0 0 0 55 11c31.5 4 72.2 2.9 105.7-3.1a349.3 349.3 0 0 0 125.3-49.6c6.2-4 8.5-5.7 21.5-15.3 10.4-7.8 10.2-7.6 20.9-17.1 20.2-18 40.7-40.5 53.4-59a340.3 340.3 0 0 0 45.7-89.5c.4-2.2 2.2-8.7 4-14.5 6-19.3 10.6-44.1 13.6-72 1-9.8.7-47-.6-59.5a349.5 349.5 0 0 0-9.5-55.5c-1.4-5.2-3-12-3.7-15-2.9-14.5-17.5-49.2-29.8-70.5-14-24.2-33-49.4-52-68.9l-11.6-12a350 350 0 0 0-220.5-95.1l-15.9-.8h-11m-23 9.3a337 337 0 0 0-177.2 69.5 307.2 307.2 0 0 0-54.5 52.1 336.3 336.3 0 0 0-64.2 117.9 343.7 343.7 0 0 0-13.7 69 258 258 0 0 0-1 39.5c.2 13.5.7 25.9 1 27.5.3 1.6 1.3 8.2 2.1 14.5a334.2 334.2 0 0 0 63.7 153.7 349.7 349.7 0 0 0 77.8 76c13.3 10 41.5 25.7 64 35.7a339 339 0 0 0 115.5 26.4A338.5 338.5 0 0 0 810.3 857a475 475 0 0 0 42.9-42.3l8.9-11.3c28.2-34.6 54.6-89.7 62-129.4l5.9-32.5c1.7-10.1 3-28.7 3-46.8.2-26.1-1-39-7-74.5a318.8 318.8 0 0 0-48.4-115 345.9 345.9 0 0 0-191-140.3 448.9 448.9 0 0 0-52.6-10.4c-15.9-2-57.4-2.8-71-1.5m349.7 53.8c-10.2 8-24 19-30.6 24a86.4 86.4 0 0 0-12.1 10.5 41 41 0 0 0 9.2 11.7c.6 0 4.9-3 9.6-6.8 10.6-8.4 13.8-10.5 15.1-10 1.9.6 13 15.2 14.1 18.5.9 2.5.8 3.8-.5 6.2-.8 1.7-1.9 3.1-2.3 3.1-.4 0-4.3 3.4-8.6 7.5l-7.9 7.4 2.7 3.6 5.2 7c3 4.1 4.1 4.4 5 1.2a16 16 0 0 1 4.7-5.8c6.5-5.3 13.8-13 14.8-15.6.5-1.3.9-3.8.9-5.4 0-3 .2-3 3.2-2.4 8.8 2 16.3-.6 21.8-7.5 4.4-5.6 6-11 4.8-17.4-1.2-6.5-2.3-8.3-10.2-18.6l-9.9-12.8a172 172 0 0 0-6.8-8.7l-3.7-4.4-18.5 14.7m-668.2-4.4c-7 3.2-13 9.6-30.1 32l-4.6 6 2.9 2.4c1.5 1.3 6.4 5 10.8 8.4 8 6.1 13.6 10.5 36 28.3a74.8 74.8 0 0 0 13.2 9.3 251 251 0 0 0 26.5-34.6c3.1-7 2.5-16.8-1.4-24.7a59 59 0 0 0-28.5-26.2 28.3 28.3 0 0 0-24.8-1m678.3 17.4c-3.8 3-6.8 6.3-6.8 7.2 0 1.4 7 11 13.4 18.4 3.5 4 8.4 3.7 13-.7 5-4.7 5-9-.1-16a106 106 0 0 0-12.2-14.3 44 44 0 0 0-7.4 5.4M247.5 318a27.4 27.4 0 0 0-7.5 6.7l-4.6 5.7a19 19 0 0 0-2.4 3.5c-1.4 2.7-1.1 3 11.5 12.8l19.9 15.6c3.3 2.6 6.5 4.7 7.2 4.7 1.2 0 7-6.5 11.3-12.8 3.1-4.5 3.2-11.3.2-17.1a45.2 45.2 0 0 0-27.6-20.6c-3-.4-5 0-8 1.5m553 27c-1 1.1-2.4 2-3.2 2-.7 0-1.3.6-1.3 1.4 0 .8-1.6 2.8-3.5 4.5-2 1.7-3.5 3.6-3.5 4.4 0 .7-2 3.3-4.5 5.7a20.4 20.4 0 0 0-4.5 5.5c0 .6-1.5 2.4-3.3 4.1-2.9 2.8-3.8 5.8-2.8 10 .2.8 27.1-26.2 27.1-27.3 0-.4 1.4-2.3 3-4.1 3.7-4.1 4-8.2.7-8.2-1.3 0-3.2.9-4.2 2m14.5 14.2a22.3 22.3 0 0 0-5 3.9c-1 1-2.2 1.9-2.7 1.9-.6 0-1.6.7-2.3 1.5a19.1 19.1 0 0 1-8.4 4.5c-.6 0-2 .9-2.9 2-1 1.1-2.3 2-3 2-.7 0-2.4 1.2-3.7 2.8a401 401 0 0 1-6.2 6.8c-4.2 4.5-4.4 8-.4 6.8 1.1-.4 2.3-1 2.6-1.3a15 15 0 0 1 6-3.1c.6 0 2.2-1.1 3.6-2.5s4.4-3.4 6.7-4.4c2.3-1 6-4 8-6.5 2.6-3 4.8-4.6 6.2-4.6 1.5 0 3.1-1.3 4.9-4 3-4.5 3.1-5.3 1.4-6.7-1-.7-2.4-.4-4.8 1M752.5 381c-2.1 2.2-4.4 4-5.1 4-.7 0-2.6 1.4-4.4 3-1.8 1.6-3.8 3-4.6 3-.8 0-1.4.3-1.4.8 0 .4-.9 1.3-2 2-1.5.9-2 .9-1.8 0 .2-.6-1.9-2-4.6-3a61.4 61.4 0 0 0-19.8-1.9c-8.3-.1-15.3.2-15.6.7-.4.5-2 1.5-3.5 2.1-1.5.7-2.7 1.7-2.7 2.3 0 .5-.8 1-1.8 1-3.2.2-10.7 4.5-11 6.5-.3 1-1.3 2.6-2.3 3.3a5 5 0 0 0-1.9 3.7c0 1.3-.5 2.7-1 3-.5.3-1 1.4-1 2.5 0 1-1.4 4.4-3 7.5-1.8 3.5-3 7.2-3 9.5 0 2.2-.5 4.2-1 4.5-.5.3-1 3.9-1 7.8 0 4.7-.6 7.9-1.5 9.1-1.3 1.7-1.3 2.2.2 3.8 1.5 1.7 1.5 2 0 3.6-1 1-1.7 2.3-1.7 2.9 0 .5-1 1.8-2 2.9-1.2 1-2 2.6-1.7 3.6.4 1.2-1.3 3.4-5.3 7a51.5 51.5 0 0 0-8 9c-1.1 2-3 3.8-4 4.1-1.3.3-2 1.4-2 3 0 1.3-.7 3-1.5 3.7-.8.7-1.5 1.7-1.5 2.3 0 .5-4.8 5.8-10.8 11.6a109.7 109.7 0 0 0-17.4 20.6 25.3 25.3 0 0 0-3.8 5c0 1.9-15.8 19.5-17.5 19.5-.6 0-2.6 1.6-4.5 3.5-1.9 2-4 3.5-4.5 3.5-.7 0-2 .9-3 2s-2.3 2-2.8 2c-.6 0-2.1 1-3.4 2.2-1.6 1.5-4 2.3-7.8 2.6-3 .2-5.8.8-6 1.3-1.4 2.2-7.3.6-12-3.2a13 13 0 0 0-4.5-2.4c-3.1-1-6.5-4-9.1-8.2-1.2-1.8-2.6-3.3-3.2-3.3a44 44 0 0 1-8.7-7.5 59.8 59.8 0 0 0-8.3-7.5c-1.5 0-8.7-7.8-8.7-9.4 0-.9-.4-1.6-.9-1.6s-1.4-1.3-2-2.9a52 52 0 0 0-8.5-10.6 60.2 60.2 0 0 1-7.6-8.6c0-1.9-16.7-17.9-18.6-17.9-3.6 0-8.9 8-6.3 9.6.5.3.9 2 .9 3.8 0 1.9.6 3.9 1.4 4.5.8.7 1.3 2.4 1 4.1-.1 1.6.1 3.2.7 3.5.5.4.9 2 .9 3.9 0 1.7.6 3.8 1.3 4.5.6.6 1.3 2.9 1.4 4.9.4 5.8 1.5 10.5 2.8 11.8.6.7 1 2.3 1 3.6l-.4 4c0 1.3-1 1.8-3.1 1.8-1.6 0-3-.5-3-1.1 0-.6-.9-.9-2-.6-1 .3-2.4-.1-3-.9-1.4-1.6-9.6-2-10.5-.4-.3.5-3.4 1-6.9 1-3.4 0-6.6.4-7.2 1-.5.5-2.4 1-4.2 1.2-1.9.1-3.6.6-3.8 1-.3.4-2.2.8-4.4.8-4 0-12 3.6-12 5.4 0 .6.7 1.9 1.4 2.9 1.1 1.4 3 1.7 11.4 1.7a32 32 0 0 1 10.7 1c.3.5 3.3 1 6.5 1s6.2.5 6.5 1c.8 1.4 4.1 1.3 6.5-.2 1.6-1 2.3-.9 4.2.8 1.3 1.1 6.3 4 11.2 6.4a53.1 53.1 0 0 1 13.6 9.2 24 24 0 0 0 5.7 4.8 18 18 0 0 1 4.9 4c2.1 2.2 4.4 4 5 4 .7 0 2.2 1.4 3.4 3 1.2 1.6 2.6 3 3.2 3 .6 0 3.7 2.4 6.9 5.3 3.1 2.8 7.1 6.2 8.8 7.5 1.7 1.3 3.1 3 3.1 3.6 0 .7.9 2.1 2 3.1s2 2.3 2 3c0 .6 1.7 2.8 3.8 4.8a26 26 0 0 1 5.2 7.2c.8 2 1.7 3.5 2.2 3.5.4 0 .8 1.3.8 3 0 1.6.4 3.2 1 3.5.6.4.5 1.4-.3 2.8-1.6 3-2.7 3.7-5.9 3.7-1.5 0-3 .5-3.3 1-.4.6-1 .8-1.5.5-.5-.3-2 0-3.2.7-1.3.7-2.5 1.3-2.8 1.3a26 26 0 0 0-8 5 3 3 0 0 1-3 1c-1-.3-2.1-.1-2.5.5-.3.5-1.8 1-3.3 1-1.5 0-4.2 1-6 2-1.8 1.1-4 2-5 2-2.8 0-5.2 3.2-5.2 6.8 0 1.7-.4 3.4-1 3.7-1.7 1-1.2 13 .5 14.5 1.3 1 1.9.9 3.4-.9 1.4-1.6 3-2.1 6.4-2.1 2.5 0 4.9-.5 5.2-1a129.4 129.4 0 0 0 21-9 227 227 0 0 1 21.6-9.7 34.3 34.3 0 0 1 13-4.3c1.6 0 3-.5 3.4-1a297 297 0 0 0 34.8-16c6-3 7.7-2.6 13.7 3.5 3 3 6 5.5 6.6 5.5.6 0 1.7.7 2.4 1.5s2.5 1.5 4 1.5c3.2 0 6 1.1 10.5 4l5 3c1.1.4 3.2 2 4.7 3.4a50.6 50.6 0 0 1 11.2 9.4c7.7 7.8 8.3 10.6 3.1 13l-4.7 2.4c-1 .4-3.6.8-5.7.8-2.2 0-4.3.5-4.6 1-.3.5-2.4 1-4.5 1-2.2 0-5.5.9-7.5 2s-4.4 2-5.5 2c-1.1 0-2 .5-2 1s-1.8 1-4 1c-2.1 0-4.2.5-4.5 1-.3.5-1.7 1-3 1s-2.7.5-3 1c-.3.5-1.8 1-3.3 1a25 25 0 0 0-11.4 3.8c-.8.6-3.8 1.7-6.8 2.3l-5.3 1.1-5.4-5.6c-3-3-6.2-5.6-7.2-5.6-2.7 0-3.3-2.6-1.6-6 1.4-2.8 1.4-3 0-3.7-2.2-.8-12.5 9.3-12.5 12.2 0 2.7 1.8 4.5 4.5 4.5 1.2 0 2.5.4 3 1 .6.4 2.6 1 4.5 1.2 2.4.2 3.6.9 3.8 2 .2 1-.3 1.8-1.1 1.8s-2 .7-2.8 1.6c-.7.8-2.1 1.3-3.1 1-2-.5-8.3 1.7-9.3 3.4s-6 3.9-9.8 4.3c-2 .2-5-.3-7.3-1.5-4.4-2.1-8.4-2.4-8.4-.5 0 .7 1.4 2.6 3 4.2 4.2 4 4.2 9.6 0 13.5-4 3.8-4 7.1.3 8.9 5 2.1 6.7 4.1 6.7 7.6 0 2-.9 4-2.5 5.5-2.3 2.2-2.7 2.2-6.4 1-4.9-1.6-7.1-.8-7.1 2.4 0 1.4-.5 2.8-1 3.1-.5.3-1 2.2-1 4 0 2-.5 3.5-1 3.5s-1 .7-1 1.6c0 2.3-2.5 4.4-5.2 4.4-3 0-4.8-1.7-4.8-4.5 0-2-3.7-6.5-5.3-6.5-1.5 0-4.7 4.6-4.7 6.6 0 1.9-.8 2.5-4 3.4-2.3.6-4.9 1-5.8.8-1.6-.3-6.2-8-6.2-10.4 0-.6-1.1-2.1-2.5-3.4-1.4-1.3-2.5-2.9-2.5-3.5 0-2.1 5.2-6.5 7.6-6.5 1.3 0 2.4-.5 2.4-1s.6-1 1.4-1c.7 0 2.7-1.4 4.5-3 3-3 3.1-3 3.1-13.4 0-9.8.1-10.5 2.6-13 1.5-1.4 3.3-2.6 4-2.6.8 0 1.4-.3 1.4-.8 0-.4 1.4-1.3 3-2 2.7-1.3 3.3-1.2 5 .3 2.2 2 2.8 8 1 9-1.6 1 .8 3.5 3.4 3.5 2 0 5.6-2.7 8.5-6.3 1.2-1.6 1-2.1-1.4-4.7a26 26 0 0 1-3.9-5.2c-1.7-3.4-8.6-4.4-12.9-1.8-4.5 2.8-6 2.5-9.6-1.5-1.7-2-5.7-4.9-8.8-6.5a47.4 47.4 0 0 1-9.2-6.4c-5.6-5.4-11.6-6.3-16-2.3-1.2 1.2-2.4 2-2.6 1.7-.3-.3-1.3.3-2.4 1.2-1.4 1.2-4.7 1.9-11.3 2.3-8.8.6-9.5.8-13.4 4.3-2.3 2-4.3 4.5-4.3 5.5s-.6 1.7-1.1 1.7c-.6 0-1 3.2-1 7.6 0 7.2.2 7.8 3 10.4 2.7 2.6 3 3.4 3 9.4 0 3.7.4 6.6 1 6.6s1 .7 1 1.6c0 2 3.5 5.3 7.6 7.4 1.6.8 3.7 2 4.6 2.9 2 1.6 2.4 6.1.6 6.1-2 0-6.8 5.2-6.8 7.3 0 1.1-1.4 3.3-3 4.9-1.6 1.5-3 3.2-3 3.6 0 1.5-2.5 6.2-3.3 6.2-.4 0-.7 2.3-.7 5 0 2.8.4 5 1 5s1 1 1 2c0 3.6 1.9 6 4.6 6 3 0 8.8-5.5 9.8-9.3.6-2.6 4.2-6.7 5.7-6.7 1.8 0 2.2 3 2 15l-.2 12.8 2.8 2 2.7 2 3.3-3.6c1.8-2 3.3-4.2 3.3-4.9 0-.7.4-1.3.9-1.3a45 45 0 0 0 7.1-14.4c0-.8.4-1.8 1-2.1.6-.3 1-3 1-6 0-7.2 1.7-8.6 7.1-5.7 4.3 2.3 13.3 3 14.4 1.2.3-.5 2.6-1 5-1 2.5 0 4.5.5 4.5 1s1.5 1 3.4 1c2 0 3.8-.5 4.1-1 .3-.5 1.5-1 2.6-1 1 0 1.9-.5 1.9-1s.9-1 2-1 2-.6 2-1.4c0-1.7 8.3-10.6 9.9-10.6.7 0 3-1.8 5.2-4s4.6-4 5.4-4c.8 0 1.5-.9 1.5-2 0-1 .4-2.1.8-2.4 1.5-1 .4-6.4-2.3-12-2.6-5.3-2.7-6-1.5-9.7.7-2.1 1.7-3.9 2.2-3.9.4 0 .8-.9.8-2 0-1.3.7-2 2-2 1.1 0 2-.5 2-1s1.6-1 3.6-1 4.8-.8 6.2-1.9c2.7-1.9 7-2.9 15-3.5 2.4-.2 4.9-.9 5.5-1.5.6-.6 2-1.1 3.2-1.1 1 0 4.4-1 7.3-2 3-1.1 5.7-1.8 6.1-1.5 1 .5 10.1-2.3 11.6-3.6.5-.5 1.8-.9 3-.9 1 0 3.4-.8 5-1.8s4.2-1.9 5.7-2a71 71 0 0 0 14.8-4.5c1.4-.6 3.9-1.1 5.5-1.3 1.7-.1 4.9-.7 7-1.3 4.7-1.2 10.4-.8 13.3 1 1.6 1 2.6 1 5.4-.4 2-1 4-2.3 4.8-3.2 2.4-3 21-1.4 21 1.8 0 .4.9.7 2 .7s2 .5 2 1 .9 1 2 1 2 .5 2 1 1.3 1 2.9 1c3.4 0 9.3 2.3 11 4.3.6.8 2.8 1.7 4.9 2a25 25 0 0 1 6.2 2c1.4.7 4.8 2 7.5 2.7a65.8 65.8 0 0 0 25.8 4.7c5.3.2 9.7.9 9.7 1.4 0 .5 2.7.9 6 .9s6 .4 6 1c0 .5 2.4 1 5.4 1 3 0 5.8-.5 6.1-1 .9-1.4 10.8-1.3 12.2.1.9.9 2 .8 4.6-.5 2-.9 3.9-1.6 4.4-1.6a64.5 64.5 0 0 1 14.3 15c.5 0 1 .7 1 1.5 0 1.9 1.8 5 4.8 8.3a39 39 0 0 0 13.6 14.8c3.6 1.7 15.7 1.9 17.4.2 1.5-1.5 1.6-14.4.2-15.3-.5-.3-1-1.4-1-2.4 0-3-4.6-11-8.4-15a35 35 0 0 1-4.9-6c-1.6-3.2-6.4-6-10.4-6-1.7 0-3.5-.6-3.8-1.2-.4-.5-2.5-.9-4.8-.7-3.3.2-4.2 0-4.5-1.5-.7-3.6 1.6-4.7 10.4-4.7 4.5 0 8.6-.5 8.9-1 .3-.5 1.7-1 3-1 1.2 0 2.8-.7 3.5-1.5 1.8-2.2 7-4.5 10-4.5 1.4 0 3-.5 3.7-1 .8-.9 1.3-.9 1.7 0 .9 1.3 7.3 1.3 8.1 0 .3-.5 1.4-1 2.4-1 3 0 6.7-2.3 8-4.9 2.5-5.6 1-8.4-6.4-11.6a48 48 0 0 1-5.7-2.6c-1-.5-3.1-.9-4.8-.9-3.8 0-4-2-.4-6 2.7-3 4.5-5.7 6.3-9.5.5-1.1 2-3 3.5-4.4 2-1.9 2.3-2.7 1.5-3.8-1.6-1.8-2.3-1.7-5.7 1.2-1.7 1.4-3.7 2.5-4.6 2.5-.9 0-1.6.3-1.6.8 0 .7-4.7 3.2-6.2 3.2-.4 0-1.6.7-2.7 1.6-2 1.7-8.6 4.4-11 4.4-.7 0-3 1.8-5.3 4s-4.6 4-5.3 4c-.6 0-2.4 1.4-4 3s-3.4 3-4 3c-1.4 0-5.5 4.2-5.5 5.6 0 .6-1.8 2.8-4 4.9-2.3 2.3-4 4.8-4 6.2 0 2.3-6.4 9.3-8.6 9.3-.7 0-2.4 1.4-3.7 3-1.4 1.6-3.3 3-4.1 3-.9 0-1.6.5-1.6 1 0 .6-2.6 1-6 1-3.2 0-6.2-.5-6.5-1-.3-.5-3-1-6-1s-5.7-.5-6-1c-.3-.5-2.1-1-4-1s-3.7-.5-4-1c-.3-.5-2.2-1-4-1-2 0-3.5-.5-3.5-1s-1.8-1-4-1-4-.5-4-1c0-.6-2.6-1-6-1-3.2 0-6.2-.5-6.5-1-.3-.5-2.1-1-4-1s-3.7-.5-4-1c-.3-.5-2.1-1-4-1s-3.7-.5-4-1c-.3-.5-2.6-1-5-1s-4.7-.5-5-1c-.3-.5-1.7-1-3-1-1.4 0-2.5-.5-2.5-1s-1.3-1-2.8-1c-2 0-3.3-.7-4.1-2.4-2-3.6-1.6-4 9.4-8.6 1.6-.6 4.8-1.4 7-1.7 2.2-.2 5.3-1 6.9-1.9 1.6-.8 5-1.4 7.7-1.4 2.6 0 5-.5 5.4-1 .3-.6 4.8-1 10-1h9.3l.5-3.3c.4-2.7 0-3.8-3.1-7-3.4-3.5-4-3.7-9.9-3.7-3.5 0-6.3.4-6.3 1 0 .5-.8 1-1.8 1s-3.1 1.4-4.7 3c-3.6 3.8-6.3 3.8-14 0-3.3-1.7-6.6-3-7.3-3-1.6 0-6.4-3.2-10.7-7.2a13.2 13.2 0 0 0-3.8-2.8c-.4 0-1.8-.9-3-2-1.1-1.1-2.7-2-3.4-2-.7 0-1.3-.7-1.3-1.5 0-.9-.7-1.8-1.6-2.2-1-.3-3-1.9-4.4-3.5-1.5-1.5-3.2-2.8-3.9-2.8-1.7 0-5.3-2.2-8-5a16.3 16.3 0 0 0-4.4-3.3c-1-.3-1.7-1.1-1.7-1.7 0-.6-.7-1.8-1.5-2.6-.8-.9-1.5-2.2-1.5-2.9 0-1.7 5.5-4.5 8.7-4.5 1.2 0 2.3-.5 2.3-1 0-.6 3-1 7.6-.8 4.2 0 7.9-.3 8.2-.8 1-1.4 5-3.4 6.7-3.4.8 0 1.5-.5 1.5-1s1.3-1 2.8-1c1.6 0 3.4-.8 4.2-2 .8-1.1 2.2-2 3.2-2s1.8-.5 1.8-1 1.3-1 2.8-1c1.6 0 3.4-.8 4.2-2 .8-1.1 2.1-2 3-2 .8 0 2.4-1.2 3.5-2.6 1-1.5 2.8-3 3.7-3.3 2.4-.9 18.8-17.1 18.8-18.6 0-.6 2.3-3.3 5-6 2.8-2.7 5-5.4 5-6 0-.7.9-2 2-3s2-2.6 2-3.5c0-2.4 3-8 4.6-8.7.8-.3 1.4-1.1 1.4-1.9 0-.7.9-3 2-4.9 1.1-2 2-5.3 2-7.5s.5-4 1-4 1-1.3 1-3c0-1.6.5-3.2 1-3.5.6-.4 1-8.8 1-22a110 110 0 0 0-1-22c-.5-.3-1-1.7-1-3s-.4-2.6-.9-3c-.5-.2-1.1-2.2-1.4-4.2-1-6.9-2-10.8-2.8-11.8-1.1-1.5-1-16.3.2-17 .5-.4.9-4.8.9-9.8v-9.3l5.3-5c2.8-2.8 6.8-5.8 8.7-6.8 2-1 4-2.9 4.7-4.2 1-2.2.9-2.4-1.2-2.4-1.3 0-2.6-.4-3-.9a34 34 0 0 0-9.2-1.5c-4.8-.4-9.3-1.2-10-1.8-1.4-1.2-1.8-5.4-.5-6.2.4-.3 1.4-2.8 2.2-5.6.8-2.8 1.8-5.4 2.2-5.6.4-.3.8-1.8.8-3.4 0-1.6.5-3.2 1-3.5 2.3-1.4 1-3.5-2.3-3.5-2.5 0-4.2 1-7.2 4m76.5-1c0 .6-1.3 1-3 1-1.6 0-3.2.4-3.5 1-.3.6-2.1 1-4 1s-3.7.4-4 1c-.3.6-2 1-3.6 1-2.8 0-3.7.3-8.6 2.8a13 13 0 0 1-5 1.2c-3.2 0-10.8 6.4-9.7 8.1.4.6 2 .8 3.8.5 1.7-.4 5.4-.8 8.1-1 7-.4 7.2-.4 8.9-2.1.8-.8 2.4-1.6 3.5-1.8 1.1-.2 2.4-.6 2.7-1 .4-.4 2.2-.7 4-.7 1.8 0 3.6-.4 3.9-1 .3-.6 1.5-1 2.6-1 4.1 0 9.9-4.4 9.9-7.7 0-1.9-.5-2.3-3-2.3-1.6 0-3 .4-3 1m-115 13c-1 .5-4.5 1-8 1.1-8.3.3-17.3 3.2-20 6.4-.7.8-1.8 1.5-2.4 1.5-.7 0-3 1.8-5.1 4-2.1 2.2-3.5 4-3 4 .4 0 .2.8-.6 1.8a14.8 14.8 0 0 0-3.9 10.1c0 2.2-.5 4.3-1 4.6-.5.3-1 2.5-1 4.8a17 17 0 0 1-2 7.5c-2.2 3.5-2.7 9.7-1 10.8.7.3 1 1.8.7 3.3-.3 1.4-.1 3.3.4 4.2.6 1.2.4 2-.6 3-.8.6-1.5 2.5-1.5 4.2 0 1.7-1.1 4.5-2.5 6.3a14.5 14.5 0 0 0-2.5 4.2c0 1.2-4.4 5.2-5.8 5.2-.7 0-1.2.6-1.2 1.3 0 .8-.9 2.2-2 3.2s-2 2.3-2 3c0 .6-1.4 2.4-3 4s-3 3.4-3 4c0 .7-4.5 5.6-10 11a77.6 77.6 0 0 0-10 11c0 .6-1.8 2.9-4 5s-4 4.4-4 5c0 .6-3.1 4.2-7 8s-7 7.4-7 8c0 .6-1.8 2.9-4 5s-4 4.4-4 5c0 1.3-18.2 19.5-19.6 19.5-.6 0-2.3 1.4-3.9 3s-3.4 3-4 3c-.7 0-1.8.7-2.5 1.5s-2.6 2.2-4.3 3c-3 1.5-3.3 1.4-4.4-.2a6.4 6.4 0 0 1-1.3-3c0-1-1.8-1.3-6.6-1.3-5.1 0-7-.4-8.3-1.8-.9-1-3.2-2.9-5.1-4.2a25 25 0 0 1-4.8-4.2c-.7-1-2-1.8-2.6-1.8-.8 0-3.2-1.8-5.5-4-2.2-2.2-4.7-4-5.4-4-.7 0-2.3-1.4-3.5-3-1.3-1.6-3-3-3.7-3-.8 0-2.2-1.2-3.2-2.8-2.5-3.8-4-5.2-5.5-5.2-.7 0-2.4-1.5-3.8-3.2-1.4-1.8-4.9-5.8-7.7-8.8-3-3-5.3-6-5.3-6.5 0-.6-3.1-4-7-7.5-3.8-3.6-7-7.1-7-7.9 0-1.7-4-5.2-5.1-4.5-1.1.7-1.2 5.1-.1 5.8.4.2.9 3.5 1 7.3.2 3.7.7 7 1.2 7.1.6.2 1 1.4 1 2.7 0 1.3.4 2.7 1 3 .6.3 1 1.5 1 2.6 0 1 .4 2.8 1 4l2 3.9c.6 1 1 2.8 1 3.8s.9 2.4 2 3.2c1.1.8 2 2.2 2 3 0 .9.5 2.1 1.1 2.7.6.6.8 1.6.5 2.2-.8 1.3-7.6 1.5-7.6.2 0-1-10.5-2-13.2-1.3-1 .2-1.8.8-1.8 1.2 0 1.4 3.8 5 5.3 5 .8 0 1.7.3 1.9.8.2.4 3.3 2.2 7 4 3.7 2 6.9 4 7.2 4.7.3.8 2.2 2.1 4.3 3.1 2 1 6.2 4 9 6.5A67.7 67.7 0 0 0 505 593a120 120 0 0 1 19.3 21c1 2 2.7 4.5 3.8 5.5a28 28 0 0 1 4.6 7.2c1.3 3 2.8 5.3 3.4 5.3.5 0 1 .9 1 2 0 5 19.6 4.8 30-.3 1.8-1 3.9-1.7 4.6-1.7.7 0 1.4-.3 1.6-.8.4-1 12.8-7.2 14.4-7.2 2.3 0 1.6 3-.9 4-1.2.4-3.1 1.8-4.2 3-1.8 2-5.6 4.2-7.7 4.4-.4 0-1.7.9-2.8 1.9a6.6 6.6 0 0 1-3.5 1.7c-.8 0-3 .9-5 2s-4.9 2-6.5 2c-1.6 0-3.2.5-3.5 1-.3.5-1.6 1-2.8 1-2.9 0-8.6 3.5-9.4 5.8-.3 1-2.9 4-5.6 7-3.5 3.6-4.8 5.5-4 6.2.6.7 1.9.6 3.9-.5 1.6-.8 3.7-1.5 4.7-1.5s3-.6 4.5-1.4c1.5-.7 5-1.7 7.7-2 2.8-.5 5.6-1.3 6.4-1.9 1.7-1.4 4.4-3 9.7-5.6 2.2-1.1 4.7-2.7 5.4-3.6.7-.8 2-1.5 3-1.5 2 0 7.7-2.7 8.5-4a18 18 0 0 1 8.5-4c1 0 2.3-.7 3-1.5 1.3-1.6 6.7-4.5 8.3-4.5.5 0 1.8-1.1 2.8-2.4 1.9-2.4 7.2-5.6 9.2-5.6.5 0 2.2-1.4 3.7-3s3.2-3 3.8-3c.5 0 2.3-1.4 4-3 1.8-1.6 3.6-3 4.2-3a15 15 0 0 0 4.3-3c2-1.6 3.8-3 4.2-3 1.1 0 33.5-33.4 33.5-34.5 0-.6 2.3-3.3 5-5.9 2.8-2.6 5-5.4 5-6.2 0-.8.4-1.4.9-1.4s1.6-1.5 2.5-3.4c.9-2 2.8-4.4 4.1-5.4 1.4-1.1 2.5-2.7 2.5-3.6 0-.9.4-1.6.8-1.6 1.3 0 5.2-7.5 5.2-9.9 0-1.1.4-2.1.8-2.1 1 0 3.2-5.9 3.2-8.3 0-1 .5-1.7 1-1.7s1-.9 1-2 .5-2 1-2 1-1.5 1-3.3c0-1.8.5-3.8 1-4.3.6-.6 1.3-3.5 1.5-6.5.3-4.2-.2-6.2-2-9.5-2.5-4.5-2.7-6.3-.6-8.8 1.3-1.5 1.5-1.5 3.3 0 3.7 3.4 4.8 7.4 4.8 17.5 0 5.4-.4 10-1 10.4-.5.3-1 1.7-1 3s-.5 2.7-1 3c-.5.3-1 2.1-1 4s-.5 3.7-1 4c-.5.3-1 1.7-1 3s-.5 2.7-1 3c-.5.3-1 1.8-1 3.3 0 1.5-1 3.8-2 5.2-1 1.4-2 3.3-2 4.3s-.3 1.7-.8 1.7c-.4 0-1.3 1.5-2.1 3.3-.8 1.7-2 4-3 5-.7 1-2 2.7-2.5 4a8 8 0 0 1-3.4 3.2c-1.2.5-2.2 1.5-2.2 2 0 .6-.9 2-2 3.3-1.1 1.2-2 2.5-2 3 0 .4-5.4 6.1-12 12.7s-12 12.4-12 13c0 1.5-9 10.5-10.6 10.5-.8 0-1.4.5-1.4 1s-.7 1-1.5 1-3 1.4-4.7 3c-1.7 1.6-3.7 3-4.4 3-.8 0-1.4.4-1.4.9s-1.5 1.6-3.3 2.4c-1.8.9-4.3 2.7-5.6 4.1-1.4 1.4-3 2.6-3.6 2.6-.7 0-2 .9-3 2s-2.9 2-4.2 2c-1.2 0-2.3.4-2.3.8 0 .5-1.2 1.5-2.8 2.3-5.9 3-6.3 4.6-3 10.7 2 4 8.2 8.2 11.7 8.2 1 0 2.6.9 3.6 2s2.4 2 3 2c.8 0 2.4 1.3 3.8 2.9 1.3 1.6 3.7 3.6 5.3 4.4 1.6.8 6 5 9.9 9.1a33 33 0 0 0 8.7 7.6c1 0 2 .5 2.4 1 .4.8 2.2 1 4.8.6 11.3-1.5 13.2-1.6 15.4-.4 1.8 1 2.8 1 4.2 0 1.3-.8 2.1-.8 2.5-.1.5.6 1 .7 1.9 0 .6-.5 3.6-1.1 6.6-1.3 3-.2 5.5-.8 5.7-1.4a75 75 0 0 0-15.5-16.4c-.6 0-3.3-2.1-6-4.8-5-5-10.6-9.2-12-9.2-.4 0-1.7-.8-2.8-1.8-1-1-4.6-3.1-8-4.8a21.5 21.5 0 0 1-7-5.3 27 27 0 0 0-3.8-5c-1.4-1.5-2.6-3-2.6-3.4 0-1.3 4.8-5.7 6.3-5.7 1 0 3.2-.9 5.2-2 2.4-1.3 5.4-2 9-2 3 0 5.5-.5 5.5-1s1.8-1 4-1c2.1 0 4.2-.5 4.5-1 .3-.5 2.2-1 4-1 2 0 3.5-.5 3.5-1s.6-1 1.3-1c1.8 0 6.7-2.4 6.7-3.3 0-.4.9-.7 2-.7s2-.5 2-1 .9-1 2-1 2-.5 2-1 .9-1 2-1 2-.5 2-1 .8-1 1.8-1 2.7-.9 3.7-2 2.3-2 3-2c.5 0 1.6-.9 2.2-2 .7-1 3-2.8 5.3-4 2.2-1.3 4-3 4-3.8 0-.8.8-2.2 1.8-3 1-1 2.3-3 3.1-4.5.8-1.5 1.8-2.7 2.3-2.7.4 0 .8-.6.8-1.3 0-2.4 3-7.6 5.6-9.6 1.3-1 2.4-2.6 2.4-3.5 0-.9.4-1.6.8-1.6.5 0 2-2.1 3.3-4.8a33 33 0 0 1 5.1-7.4c1.7-1.5 2.8-3.7 2.8-5.2 0-1.4.5-2.6 1-2.6s1-.9 1-2 .5-2 1-2c.6 0 1-3 1-6.8 0-3.7.5-7.3 1-7.9.9-.8.9-1.3 0-1.7-1.6-1-1.3-14.8.5-18.2 1.2-2.4 1.2-3.2.1-4.9a10 10 0 0 1-1.2-5c.1-1.6-.2-3.8-.7-4.8-.4-1-1-6.3-1.1-11.8-.2-6-.8-10.4-1.5-10.8-.6-.4-1-3.2-.9-6.8.1-3.9-.3-6.7-1.1-7.7-1.4-1.7-1-13.3.5-15.8s.2-9.2-3.2-15.7c-4.4-8.5-5.6-10.4-7.1-11.4a3 3 0 0 1-1.3-2.3c0-.7-.4-1.4-1-1.4a15 15 0 0 1-4.4-3.5c-2-2-4.2-3.5-5.1-3.5-.9 0-3.5-.9-5.7-2-2.3-1.1-4.9-2-5.8-2-.9 0-2-.4-2.5-1-.6-.5-1.6-.5-2.6 0m-8.6 24.3c-3.7 3.6-4.8 8.3-2.7 11.2.8 1 1.4 3.1 1.4 4.7 0 2.3.4 2.8 2.4 2.8 1.4 0 2.8.4 3.1 1 1.9 3 12.7-.9 13.3-4.8.2-1.2.8-2.2 1.3-2.2 1.3 0 1.1-5.7-.2-6.5-.5-.4-2.5 1-4.2 3l-3.2 3.6-3.4-3.5-3.5-3.6 2.4-2.5a7.4 7.4 0 0 1 5.7-2.5c2.7 0 3.4-.4 3.1-1.8-.3-1.4-1.5-1.7-6.3-2-5.6-.1-6.2 0-9.2 3m-10 99.3c-1.3 1.3-2.3 3.1-2.3 4 0 .8-.5 1.5-1 1.5s-1 .6-1 1.3c0 1.8-2.4 6.7-3.3 6.7-.4 0-.7 1.2-.7 2.6 0 3.5-1.6 6.3-6.2 10.4-2 2-3.8 4.3-3.8 5.2 0 .9-.7 1.8-1.5 2.2-.9.3-1.9 1.4-2.3 2.5a66 66 0 0 1-14.6 15.1c-2.1 0-11.6 10.5-11.6 12.8 0 1.2.2 2.2.3 2.2 1.1 0 6.7-3.3 7.7-4.5.7-.8 1.8-1.5 2.4-1.5 1.4 0 19.6-18.2 19.6-19.6 0-.6.9-1.9 2-2.9s2-2.4 2-3.2c0-.7.7-1.3 1.5-1.3.9 0 2-1 2.4-2.3a9.7 9.7 0 0 1 2.5-3.6c.9-.7 1.6-2 1.6-2.7 0-.8.5-1.4 1-1.4s1-.8 1-1.8.8-2.6 1.8-3.5c1-1 2.4-3.2 3.2-5.2.8-2 1.7-3.5 2.2-3.5.4 0 .8-1.1.8-2.5s.5-3.4 1.2-4.4c1-1.5.9-2.3-.1-3.5-1.7-2-2.1-2-4.9 1m-40 4.2a10.7 10.7 0 0 0-2.2 3.7c0 .6-.9 1.7-2 2.5s-2 2.2-2 3.2-.4 1.8-.9 1.8c-.4 0-1.4 2.1-2.2 4.7a18 18 0 0 1-5.9 9.9l-9 8.3c-4 4-8 7.1-8.6 7.1-1.8 0-3.5 3.5-2.8 5.4.3.9 1 1.6 1.4 1.6 1.4 0 6.8-3 8-4.5.7-.8 1.7-1.5 2.3-1.5.6 0 2-.9 3.2-2 1.3-1.2 2.5-1.6 3.4-1 1.2.7 1.2 1.3-.2 4.2-1.8 3.8-5.3 7.8-6.9 7.8-1.6 0-12 11-11.3 12 1.2 2 6.8-1.7 16.5-10.8a40 40 0 0 1 7.8-6.2c.6 0 1.4-.9 1.7-2 .3-1.1 1.3-2 2-2 .9 0 1.5-.6 1.5-1.3 0-.8 3.1-4.4 7-8.1a48 48 0 0 0 7-7.7c0-.4.9-2.4 2-4.4 1.1-2 2-4.4 2-5.4s.7-2.4 1.5-3c2.5-2.1 4.5-7.2 4.5-11.3V518h-7.8c-7.2 0-7.9.2-10 2.8m-481 16.7c-3.2 3.3-3.4 3.9-2.8 8.1.3 2.5 1.5 6.6 2.6 9 2.3 5.3 4.7 16 3.7 17-1.1 1.1-5.5-2.4-9-7.2a126 126 0 0 0-6.9-8.8c-3.3-3.8-4-4.1-8.6-4.1-6.5 0-8.2 1.6-8.2 7.4 0 7.4 2.4 9.2 14.7 11.7 8.8 1.8 16.3 4.3 16.3 5.5 0 1-8.8 3.7-17.3 5-8.7 1.5-12.9 4.3-14.1 9.2-1.3 5.2.3 8.3 5.3 9.8 6.1 1.8 9.2 0 17.2-10.2 5.9-7.4 8.5-9.9 10.5-9.9 1.6 0-.8 10.2-4.1 17.5-.8 1.7-1.7 5.3-2 8.1-.7 5-.6 5.3 3 8.8 2 2 4.4 3.6 5.4 3.6 2.6 0 7.8-5.1 8.7-8.5a47 47 0 0 0-5.1-19c-2-4.5-2.6-10.5-1.2-10.5 1.6 0 9.4 8.1 13.6 14.1 4.8 6.8 10 8.6 16.2 5.4 2.5-1.3 2.9-2.1 2.9-5.6 0-8-3.4-11.3-13.2-12.4a44.7 44.7 0 0 1-16.6-5c-1.8-1.7 4-4 15.2-6 10.7-2 13.2-3.5 14.7-8.7 1.2-4.6-.4-8-4.6-10-4.5-2-9-.2-14.2 6-13.4 15.8-15.5 17.2-14.3 10 .4-2.4 2.1-8.3 3.8-13.1 4-11.3 4-13-.2-17.3-4.3-4.3-7-4.3-11.3.1m818.1 1.9c-4 4-4.2 6.4-1.3 14.4a78.7 78.7 0 0 1 4.9 18c0 2.2 0 2.2-3 .7-1.7-.9-5.3-4.7-8-8.5-6.5-8.9-9.2-11-14.2-11-5.5 0-9 3.6-8.1 8.2 1.3 7.1 3.4 8.6 15.8 11.3 11.2 2.3 14.5 3.5 14.5 4.9 0 1.5-7.9 4-17.4 5.7-8.2 1.4-12.2 4.5-13.2 10.1-.5 3.1-.2 4 2 6.2 2.7 2.8 7.7 3.4 11.8 1.5 1.3-.5 4.1-3.5 6.3-6.6 4.7-6.5 10.4-12.3 12.2-12.3 2 0 1.5 3.9-2.2 14.5a73 73 0 0 0-3.5 12.3c0 3.6 2.8 8 6.1 9.8 3 1.5 3.2 1.4 7-1.1 5.8-4 6-7.3 1.4-19.3-3.5-9-4.8-14.7-3.8-16.4.8-1.6 5.7 2.8 11.4 10.4 3.3 4.2 6.8 8.2 7.9 8.8 2.7 1.5 7.7 1.2 11-.5 5.2-2.7 3.6-10.8-3-15.2a13.3 13.3 0 0 0-5.7-2.3c-3.9 0-15.9-3-17.9-4.4-1.7-1.3-1.6-1.5 1.2-2.9 1.6-.8 7.6-2.4 13.3-3.5 12.5-2.5 15.1-4.4 15.1-10.8 0-3.4-.5-4.7-2.6-6.3-5.6-4.4-11.2-2.4-18.6 6.7-6.5 8.2-10.8 12.3-11.8 11.7-1.1-.7.5-8 4-17.3 1.6-4.5 3-9.4 3-10.8 0-3.2-6-9.4-9-9.4-1.2 0-3.7 1.5-5.6 3.4M637 589.9c0 1.1-.5 2.3-1 2.6-1.6 1-1.1 2.5.8 2.5 2.3 0 6.6-4.5 5.7-6-.3-.5-1.7-1-3-1-1.8 0-2.5.5-2.5 2m-3 39.5c-1 1.2-1 1.6.4 2.1 2.2.8 4.6-.2 4.6-2 0-2-3.4-2-5-.1m140.3 3.2c-1.5.6-1.8 7.3-.3 7.3 1.8 0 1.2 10.4-.8 12.6a23 23 0 0 0-3.1 4.6c-.8 1.6-1.8 2.8-2.3 2.8-.4 0-.8 2-.8 4.6 0 6.4 3.2 9.4 10 9.4 2.7 0 5.2-.5 5.5-1 .3-.5 1.7-1 3-1s2.7-.5 3-1c1-1.6 4.1-1.2 8 1 2 1.1 5.3 2 7.5 2 3.3 0 4-.3 4-2 0-1.4-.7-2-2.3-2-2.9 0-5.3-2.5-6.2-6.3-.9-3.4-5-6.5-6.7-5a16 16 0 0 0-2.2 3.4 8.9 8.9 0 0 1-3.4 3.5 23 23 0 0 0-4.2 3c-1.6 1.4-2.6 1.6-4.8.8-2.3-.8-2.7-1.5-3-5.6-.2-3.7.2-5.2 2-7.2 1.2-1.4 2.7-2.6 3.4-2.6 1.9 0 2.5-3 1.2-5.3a9 9 0 0 1-1-4c.2-.9-.3-2.7-1-4a14 14 0 0 1-1.3-5.2c0-3-1.6-4-4.3-2.8m28 6.8c-.6.8-1.2 3.4-1.2 5.8 0 6.1 2.9 8.7 9.7 8.7 6 0 8.3 2 8.3 7v3.5l1.9-3.9c1.5-3 3-4.4 8-6.8 6.3-3 8.2-5.1 6.4-7-.7-.6-2.3-.2-4.7 1.1-5 2.9-10.6 2.8-13.4-.2-1.2-1.3-2.2-2.8-2.2-3.3 0-.6-1.1-2.1-2.6-3.4-2.8-2.8-8.3-3.5-10.1-1.5m4.3 6c-.3 1 0 1.8 1 2.1 1.5.6 4.4-1.2 4.4-2.7 0-1.6-4.8-1-5.4.6m39.4 31c-5.3 3.5-18.3 17.1-17.6 18.4 1.2 2 3.1 1.2 7.1-2.9 2.1-2.2 4.4-4 5-4 1.4 0 6.7-5.8 8.4-9.2 2-4 1-4.8-2.9-2.3m-616.5 17.3a958.6 958.6 0 0 0-27 20 274 274 0 0 1-10.5 7.7c-23.6 16.8-22.2 15.6-21.5 19.5a37 37 0 0 0 2 6.4c.9 1.6 1.5 3.5 1.5 4.3 0 .8 1.5 1.4 4.3 1.5l7.7.4c5.4.4 72.2.5 72.5.2.2-.2-.8-3.8-2.1-8l-2.5-7.8-27.7.5c-15.2.3-29 .8-30.4 1-1.6.3-2.8 0-2.8-.4s6.2-5 13.8-10L228 715c16.2-11.3 15.3-9.7 11.7-20.2l-2.2-6.7-8 5.8m624.7-4.6c-2.1 2.1-1.3 2.8 3.6 2.8 4.7 0 10.2-1.8 10.2-3.3 0-1.2-12.5-.8-13.8.5m83.3 10.5c-3.7 10.7-5.8 9 22.2 18.3 25.2 8.4 26 8.7 25.2 9.4-.2.2-13 3-28.4 6a438 438 0 0 0-30.4 7c-2 .9-2.7 2.5-3.8 7.6l-1.6 8c-.2 1.5 1.7 2.2 40.8 15 34.3 11.2 33.6 11 34.2 9.2.2-1 1-3.3 1.8-5.2 3.3-8.3 4.8-7-17.7-14.5C954 751.9 949 750 949 748.9c0-.5.4-.9.9-.9.9 0 31.7-6.3 50-10.3l10.4-2.2 2.4-7c2.8-8.5 2.9-9.2 0-10A2814.8 2814.8 0 0 1 940 695c-.5 0-1.6 2.1-2.5 4.8m-479.3 7.7a9 9 0 0 0-2.2 5.4c0 4.5-1 6.1-3.6 6.1-1.7 0-2.4-.6-2.4-1.8 0-1.1-1.6-2.7-4-4-3.6-2-4.2-2-7-.6-1.6.9-3 2.2-3 3 0 .8-.4 1.4-1 1.4s-1 1.6-1 3.5c0 2-.6 4.4-1.3 5.6-1 1.7-1 2.2.7 3.5 1.1.8 4 1.4 6.6 1.4 3.3 0 5.2.6 6.3 1.8 3 3.3 1.9 6-3.7 8.7-3 1.5-3.4 8.5-.6 12.5 2.1 3 6.4 4 8.6 2.1.5-.4 2.3-.4 4.1 0 2.8.8 3.3 1.4 3.3 4 0 2.7.3 2.9 3.6 2.9 4.6 0 6.4-2 6.4-6.8 0-5.1 1.5-6.3 6.5-5.2 2.6.6 4.4.5 5.2-.2a18 18 0 0 0 4.3-8.8c0-1.8-3-5-4.7-5-.6 0-1.7-.7-2.4-1.6-1.1-1.4-1-2 1.6-3.8a19 19 0 0 1 5-2.6c2.7-.8 3.4-7.4 1-10.1-2.7-2.8-5.5-2.3-9.2 1.7-3 3.4-3.3 4.2-3.3 10.3 0 6.4-.2 6.8-3.8 10.4-3.3 3.2-4.4 3.7-8.6 3.7-4 0-4.9-.4-5.3-2-.3-1.1-1-2-1.4-2-.5 0-.9-2.2-.9-4.9v-4.9l5.3-2.6c8.5-4.1 11-8.2 10.5-17.1l-.3-6-3.5-.2c-2.6-.2-4 .4-5.8 2.2M825 724.9c0 .6.5 1.3 1 1.6.6.4.8 1 .6 1.4-.3.4.8 2 2.4 3.6 1.7 1.6 3 3.8 3 5 0 1.2 1.6 3.7 3.6 5.6 2 1.8 4 4.4 4.5 5.6.6 1.8 1.7 2.3 4.2 2.3 3.3 0 3.5-.2 4.1-4.2.4-2.4.3-4.5-.4-5.2a4 4 0 0 1-1-2.3c0-1.5-.3-2-5.6-8-3-3.5-4.3-4.3-7-4.3-1.8 0-3.6-.5-3.9-1-.8-1.3-5.5-1.3-5.5 0m-326.7 18.3c-2.6 1.8-3.3 2.9-3.3 5.8 0 3.6 1.7 5.9 6.8 8.7 2.7 1.5 4.8 0 5.4-3.8.4-3 2.8-3.8 3.5-1.1.8 3 3.7 2.6 5-1 1.8-4.6-.7-8.9-5.2-8.9-1.9 0-3.7-.5-4-1-1-1.7-4.9-1.1-8.2 1.3m-77.6 20.9c-1.8 1-4.1 1.6-9 2.5-1.5.3-3 1-3.3 1.4-.3.5-2.3.9-4.5.9-2.1 0-3.9.4-3.9.8 0 .5-2 1.5-4.3 2.2-6.3 2-9.7 3.4-9.7 4.2 0 .5-.7.8-1.6.8-.9 0-2.9 1.4-4.4 3-1.5 1.6-3.3 3-4 3-.6 0-2 .9-3.2 2-1.2 1.1-2.8 2-3.5 2-.7 0-1.3.5-1.3 1s-.9 1-2 1-2 .5-2 1-.8 1-1.8 1-2.4.9-3.2 2c-.8 1.1-2 2-2.8 2-2.2 0-4.2 2.6-4.2 5.4 0 2 .5 2.6 2.4 2.6 1.3 0 3-.7 3.6-1.5.6-.8 5.8-3.7 11.5-6.5a71.4 71.4 0 0 0 11.5-6.5c.7-.8 2.3-1.5 3.6-1.5 1.2 0 2.6-.5 2.9-1 .3-.5 1.6-1 2.9-1 1.3 0 3.1-.9 4.1-2 1-1.1 2.8-2 4.1-2 1.3 0 2.6-.5 2.9-1 .3-.5 1.7-1 3-1s2.7-.5 3-1c.3-.5 1.7-1 3-1 1.4 0 3.3-.4 4.3-1l5.3-2.4c2-.8 5-2.9 6.7-4.6l3.2-3-2.7-1-3.9-1.4c-.5-.2-1.8 0-2.7.6m34 5.5c-1.5 1.5.6 9.3 2.6 9.3.4 0 .7 2.2.7 5 0 2.7.4 5.2 1 5.5.6.3 1 2.6 1 5 0 2.5.3 4.5.6 4.5 1.4 0 3.4-3.1 3.4-5.4 0-1.4.4-2.8 1-3.1.6-.3 1-4.6 1-9.4 0-7.2-.3-9-1.8-10.4-1.8-1.7-8.2-2.3-9.5-1m-206.7 1a55.6 55.6 0 0 0-34.4 19.5c-10.8 12.4-11.6 27.7-2.2 43.3 8.2 13.4 18.4 19 33.2 18.3 9.4-.4 19.6-4.7 28.3-11.7 7.3-6 9.6-8.6 12.6-14.9a29.9 29.9 0 0 0 3-20.2c-3.5-20.8-22.1-36.5-40.5-34.3m659.3 7c-2.2 3.2-5.9 9-8.2 12.8a969 969 0 0 1-11.6 18.5l-7.3 11.5 2.4 2c2.1 1.8 16 10.8 22.9 14.8l12.5 8.2 12.5 8.2a109 109 0 0 0 16.2 9.3c.4 0 1.5-1.2 2.4-2.8a1651.3 1651.3 0 0 1 18.7-29.5l6.6-10.5c4.8-7.5 4.8-7.6 2.8-9.1a46 46 0 0 0-9.5-5.6c-.8 0-15.3 22.3-18.2 28-.8 1.6-2.5 4.3-3.8 5.9l-2.3 2.8-7.8-4.8a39 39 0 0 1-8.3-6.1c-.3-.7 3.8-8.2 9-16.7 5.4-8.5 9.7-15.8 9.7-16.2 0-.5-2.6-2.4-5.7-4.3-5.3-3.2-5.8-3.3-6.7-1.7l-4.7 7.4c-2 3.2-5.3 8.9-7.3 12.7-2 3.9-4.6 7.8-5.5 8.8-1.7 1.8-2 1.7-7.9-1.8-3.4-2-6.3-3.9-6.6-4.3-.2-.4 4.2-8.4 10-17.7 5.6-9.4 10.3-17.6 10.4-18.2 0-1.2-6.2-5.7-9.5-7-.8-.2-2.8 1.8-5.2 5.4m-468.1 9.5c-1.2 1.2-1.7 5.8-.6 5.8 1.3 0 3.4-3 3.4-5 0-2.3-1-2.6-2.8-.8m-192.8.7a43.9 43.9 0 0 0-23.2 17.4c-5.3 8.4-2.7 20 6.1 27.1 3.5 2.8 4.5 3.1 11 3.1 6.2 0 8.3-.5 14-3.3a43 43 0 0 0 17.3-15.3 22 22 0 0 0 1.9-9.4c0-7.3-3.5-14.1-9-17.5a29.3 29.3 0 0 0-18-2.1m615 58.8c-4.3 1.4-7.3 4-20.8 17.5a160.3 160.3 0 0 0-15.7 17.2c0 .8 2.8 4 6.3 7.1l22.2 21c26.7 25.2 28.1 26.5 29 26.5 1 0 19.1-18.9 25.3-26.4 10-12 9.5-27-1.2-42-12.1-17-30.8-25.7-45.1-21M299 849.2a47.2 47.2 0 0 0-18.7 12.8c-10.5 10.6-15.6 24.5-13.2 36.1 3.3 16.2 15 27.4 29.9 28.7l6 .6-2.4 4.2-2.5 4.2 3.2 3.1c1.8 1.8 3.8 3.2 4.3 3.2.8 0 18.2-17 28.1-27.5.7-.8 1.3-2 1.3-2.8 0-1.3-21.7-22.7-23-22.7-.3 0-2.5 2-4.9 4.4l-4.2 4.3 6 6c3.4 3.4 6.1 6.5 6.1 7 0 1.7-7.1 4.3-11.8 4.3-6 0-12.3-2.9-15.5-7.1-8.4-11.2-6.3-23.4 6.2-35.1 10.7-10.1 21.4-12.5 30.2-7 8.5 5.5 11.5 11.7 9.8 20.5l-1 5.1 5.6 5.5c5.1 5.2 5.6 5.4 7.2 3.9.9-1 2.4-4.7 3.3-8.3 3.1-12.4-.1-22.6-10.5-33-8.8-8.8-14.5-11.5-25.3-12-7.3-.5-9.6-.2-14.2 1.6m564.5 13.4-4.1 1.5-6.9 7.5-6.7 7.6 5.9 5.7a2180 2180 0 0 0 29 27.6l3.2 2.8 5.8-6.2c8-8.5 9.7-12 9-18.5-.7-6.9-5.2-14.1-13-20.5-9.9-8.3-15.1-10.1-22.2-7.5M805 894.7l-5.7 4-3.1 2.3 5.4 8.7 7 11.8 4.8 8a73.8 73.8 0 0 1 9.4 16.6c-.3.8-8.6-3.5-34-17.3-3.4-2-9.5-5.2-13.5-7.2l-7.1-3.7-7.1 4.5c-4 2.5-7.1 4.8-7.1 5.1 0 .3 2.6 4.7 5.8 9.8a3409 3409 0 0 1 22.7 37c10.4 17 12.8 20.7 13.8 20.7 2 0 11.7-6.2 11.7-7.5 0-.7-6.1-11.5-13.6-24a292 292 0 0 1-13.2-23c.4-.4 18.6 9.1 44.1 23.1l11.9 6.5 5.1-3.1c10-6.1 9.8-4.6 3-15.7-23-38-36-58.3-36.8-58.2-.5 0-2.1.7-3.5 1.6m-433.2 7c-12.2 18-38.8 59.7-38.8 60.6 0 .6 44.3 30.2 48.7 32.5 1.8 1 2.4.6 5.7-4.3 2-3 3.6-5.6 3.6-5.8 0-.4-4-3.1-23-15.7-15-9.9-14.5-9.5-13.1-11.2.6-.7 3-4.2 5.2-7.8l4.4-6.8c.8-1 5.2 1.5 18.5 10.3a251 251 0 0 0 14.9 9.5c.8 0 7.1-9.7 7.1-11 0-.5-7-5.5-15.5-11.2a138.8 138.8 0 0 1-15.5-11c0-1.8 7.6-12.8 8.8-12.8.7 0 8.4 4.7 17.2 10.5 8.8 5.8 16.6 10.5 17.5 10.5 1.4 0 7.5-8.4 7.5-10.5 0-.5-8-6.2-17.7-12.5a6879.2 6879.2 0 0 1-27.4-17.8l-3.6-2.2-4.5 6.8m67 43.5-8.3 23.7-9.6 27.4c-3.6 10-4.7 14.1-3.8 14.6.6.4 7.5 2.9 15.3 5.5l24.8 8.6c6 2.2 11.2 3.9 11.6 3.9 1.2 0 5.1-13 4-13.6-.4-.3-8.5-3.2-18-6.5a329 329 0 0 1-17.6-6.3c-.2-.3 1.9-7.2 4.8-15.3l6-17.8c.4-1.6 2.8-8.8 5.3-16a61.3 61.3 0 0 0 3.9-13.6c-.9-.7-12.6-4.9-13.8-4.9-.6 0-2.6 4.6-4.6 10.3m271.2-1.1-26.7 9.2c-.6.5 24.5 74.6 25.6 75.8.3.4 10.5-2.7 22.6-6.8l28.3-9.6c6.2-2 6.3-2.2 5.6-5.1-1.2-5.6-3.4-9.7-5.2-9.7-1 0-10.2 3-20.7 6.5a120 120 0 0 1-19.6 5.7 66.6 66.6 0 0 1-5.6-17.5c.4-1.1 18-8 30.2-11.7 2.2-.7 4.3-1.5 4.8-2 1-1-3.3-13-4.7-13-.7 0-8.4 2.5-17 5.5-8.7 3-16.5 5.5-17.5 5.5s-2.3-2-3.9-6.3a47.9 47.9 0 0 1-2.2-7.4c0-1.6 2.7-2.7 22-9.3 8.6-2.9 15.9-5.6 16.4-6 1.1-1.1-3.3-13-4.8-13-.6.1-13 4.2-27.6 9.2m-220.7 13.5c1.7 13.4 10 70 11 75.3.6 3.1 1.9 3.9 8.8 5 3.9.7 7.2 1 7.4.9.4-.5 6.7-11.6 11.9-21.2 5.7-10.4 7.7-14.1 8.6-15.2a1725 1725 0 0 1 18-32.9c1.1-2.1 1.8-4.1 1.5-4.5-.7-.7-11-3-14-3-1.7 0-3.3 2.2-8 11.6a8211.2 8211.2 0 0 1-20 40c-.5 1.3-1.3 2.3-1.6 2.3-.7 0-1.5-4.6-2.4-13.5-4-42.9-4.3-45.7-5.2-46.6-1-.9-10.6-2.9-14-2.9-2.5 0-2.6.2-2 4.8m167.4.7c-3.2.7-6 1.5-6.2 1.6-.4.5 1 8.2 6 33.9l5.9 30.8a73.2 73.2 0 0 0 3.2 13.2c.8.8 14-1.4 15.2-2.5.6-.5-1.2-11-6.3-37.5l-6.1-31.8c-2-10.4-1.3-10-11.7-7.7m-55.7 5.8c-.3.3-6.5.7-13.8.8-7.3 0-14.2.4-15.4.7-2 .5-2 1-1.4 15.6a4776.9 4776.9 0 0 1 2 62.6c.2 1.2 2 1.5 8.2 1.5h7.9l-.4-15.1c-.3-12.8 0-15.2 1.2-15.7 1.4-.5 12.5-1 20.4-.8 1.8 0 4.3 1 5.8 2.4 2.2 2 2.6 3.3 3.5 12.7 1.6 16.4.6 15 10.9 15 4.8 0 9-.3 9.4-.6.3-.4-.2-1.8-1.3-3.3-1.4-2-2-5.2-2.5-13-.7-11.7-2-15.8-6.1-19l-2.9-2 3.2-2.8c4.6-4.1 6.3-8.3 6.3-15.7 0-7.8-.8-10.2-5.2-15.2-4.6-5.3-10.5-7.6-20.8-8.1-4.7-.3-8.7-.3-9 0m-6 14.6-7.5.6-.3 8c-.5 13.5-1.3 12.8 13.6 12.3 14.4-.4 16.6-1.2 18.4-7 1.4-4.8.1-9.5-3.4-12.1-3-2.3-9-2.8-20.8-1.8"></path>
</svg><style>@media (prefers-color-scheme: light) { :root { filter: none; } }
@media (prefers-color-scheme: dark) { :root { filter: none; } }
</style></svg>